<svg version="1.0" xmlns="http://www.w3.org/2000/svg"
 width="96.000000pt" height="96.000000pt" viewBox="0 0 96.000000 96.000000"
 preserveAspectRatio="xMidYMid meet">

<g transform="translate(0.000000,96.000000) scale(0.100000,-0.100000)"
fill="#000000" stroke="none">
<path d="M103 660 c-13 -5 -32 -24 -43 -42 -17 -29 -20 -51 -20 -170 l0 -138
55 0 54 0 3 123 3 122 38 3 37 3 0 -125 0 -126 60 0 60 0 0 125 0 125 35 0 35
0 0 -125 0 -125 60 0 60 0 0 131 c0 149 -11 186 -63 214 -25 13 -48 16 -107
12 -89 -7 -77 -7 -170 -2 -41 3 -85 0 -97 -5z m169 -41 c14 -8 23 -8 31 0 6 6
42 11 79 11 60 0 72 -3 93 -25 24 -23 25 -30 25 -140 0 -108 -1 -115 -20 -115
-19 0 -20 7 -20 108 0 59 -4 113 -9 121 -11 18 -93 26 -120 12 -20 -11 -21
-19 -21 -126 0 -108 -1 -115 -20 -115 -19 0 -20 7 -20 109 0 102 -2 111 -22
125 -26 18 -80 21 -109 6 -17 -10 -19 -22 -19 -125 0 -108 -1 -115 -20 -115
-19 0 -20 7 -20 120 0 150 6 160 106 160 36 0 75 -5 86 -11z"/>
<path d="M624 660 c-12 -4 -31 -21 -43 -36 -20 -25 -21 -37 -21 -240 l0 -214
55 0 55 0 0 70 0 70 79 0 c143 0 171 29 171 178 0 155 -28 182 -182 181 -51 0
-103 -4 -114 -9z m233 -52 c21 -20 23 -30 23 -118 0 -131 -7 -138 -145 -142
l-100 -3 -3 -67 c-2 -52 -6 -68 -17 -68 -13 0 -15 30 -15 190 0 238 -5 230
137 230 86 0 99 -3 120 -22z"/>
<path d="M650 580 c-16 -16 -20 -33 -20 -90 0 -94 15 -110 106 -110 100 0 104
4 104 111 0 87 -1 90 -26 99 -14 6 -52 10 -85 10 -46 0 -63 -4 -79 -20z m155
-90 l0 -65 -67 -3 -68 -3 0 71 0 71 68 -3 67 -3 0 -65z"/>
</g>
</svg>